<?xml version="1.0" standalone="no"?>
<!DOCTYPE svg PUBLIC "-//W3C//DTD SVG 1.1//EN" "http://www.w3.org/Graphics/SVG/1.1/DTD/svg11.dtd" >
<!--
2013-9-30: Created.
-->
<svg>
<metadata>
Created by iconfont
</metadata>
<defs>

<font id="iconfont" horiz-adv-x="1024" >
  <font-face
    font-family="iconfont"
    font-weight="500"
    font-stretch="normal"
    units-per-em="1024"
    ascent="896"
    descent="-128"
  />
    <missing-glyph />
    
    <glyph glyph-name="jingqing" unicode="&#58942;" d="M484.32 727.04h57.76c4.64 0 8.32 3.52 8.32 8.32V834.72c0 4.64-3.52 8.32-8.32 8.32h-57.76c-4.64 0-8.32-3.52-8.32-8.32v-99.36c0-4.64 3.68-8.32 8.32-8.32zM902.4 668.8c0 2.24-0.8 4.16-2.4 5.76l-40.96 40.96c-1.44 1.6-3.52 2.4-5.76 2.4s-4.16-0.8-5.76-2.4l-70.08-70.08c-3.36-3.36-3.36-8.48 0-11.84l40.96-40.96c3.36-3.36 8.48-3.36 11.84 0l70.08 70.08c1.44 1.44 2.24 3.68 2.08 6.08z m-25.6-710.72c0 18.08-14.88 32.96-32.96 32.96h-661.6c-18.08 0-32.96-14.88-32.96-32.96v-24.8c0-2.24 0.8-4.16 2.4-5.76 1.44-1.6 3.52-2.4 5.76-2.4H868.8c4.64 0 8.32 3.52 8.32 8.32h-0.32v24.64zM202.08 589.92c2.24 0 4.16 0.8 5.76 2.4l40.96 40.96c3.36 3.36 3.36 8.48 0 11.84l-70.08 70.24c-1.44 1.6-3.52 2.4-5.76 2.4s-4.16-0.8-5.76-2.4l-40.96-40.96c-1.6-1.44-2.4-3.52-2.4-5.76s0.8-4.48 2.4-5.76l70.08-70.4c1.44-1.76 3.52-2.56 5.76-2.56zM183.36 90.4c0-18.08 14.88-32.96 32.96-32.96H335.2V318.88h66.24v-261.6h408.48c18.08 0 32.96 14.88 32.96 32.96V331.36c0 182.08-147.68 329.76-329.76 329.76S183.36 513.44 183.36 331.36V90.4z"  horiz-adv-x="1024" />

    
    <glyph glyph-name="xianhangmian" unicode="&#59043;" d="M884.224 104.96v558.08h-69.632c-12.8 0-23.04 10.24-23.04 23.04V756.224H232.96v-69.632c0-12.8-10.24-23.04-23.04-23.04H139.776v-558.592h69.632c12.8 0 23.04-10.24 23.04-23.04v-69.632h558.592V81.92c0 12.8 10.24 23.04 23.04 23.04h70.144z m93.184 0h23.04c12.8 0 23.04-10.24 23.04-23.04v-186.368c0-12.8-10.24-23.04-23.04-23.04H814.08c-12.8 0-23.04 10.24-23.04 23.04v23.04h-558.08v-23.04c0-12.8-10.24-23.04-23.04-23.04H23.04C10.24-128 0-117.76 0-104.96v186.368c0 12.8 10.24 23.04 23.04 23.04H46.08V663.04H23.04C10.24 663.04 0 673.28 0 686.08V872.96C0 885.76 10.24 896 23.04 896h186.368c12.8 0 23.04-10.24 23.04-23.04V849.92h558.592V872.96c0 12.8 10.24 23.04 23.04 23.04h186.368c12.8 0 23.04-10.24 23.04-23.04v-186.368c0-12.8-10.24-23.04-23.04-23.04h-23.04v-558.592zM46.592 849.408v-139.776h139.776V849.408H46.592z m791.04 0v-139.776h139.776V849.408h-139.776zM46.592 58.368v-139.776h139.776v139.776H46.592z m791.04 0v-139.776h139.776v139.776h-139.776zM279.04 615.936h185.344v-45.568c-17.92-50.176-36.864-99.84-57.344-148.992 34.816-51.712 53.248-96.768 55.808-134.656 0-26.624-5.632-46.592-16.896-57.344-16.896-14.336-46.592-22.528-87.552-23.04l-18.944 59.392c12.288-2.048 23.04-3.584 31.232-3.584 13.312 1.024 22.528 2.56 26.624 6.144 4.608 3.584 6.656 9.728 6.656 18.432 0 37.376-18.944 79.36-56.32 125.44 24.576 55.296 44.032 104.96 57.856 148.992H336.384v-444.928H279.04V615.936z m259.072-153.6v-46.592h141.312v46.592h-141.312z m141.312 52.736v47.104h-141.312v-47.104h141.312z m-94.208-152.064H537.6v-167.424c28.672 8.704 56.32 19.456 84.48 32.768l13.824-54.272c-41.472-17.408-93.184-34.304-155.648-49.664l-13.824 51.2c8.704 2.56 13.824 8.192 13.824 16.384v424.96h256V363.52h-98.304c5.632-26.624 14.336-51.2 26.624-74.24 25.6 15.872 48.128 36.352 67.072 59.904l36.864-37.376c-21.504-25.6-47.616-47.104-76.288-63.488 24.576-30.72 54.784-56.832 89.6-75.776l-32.256-51.2c-91.136 58.368-145.92 139.776-164.352 241.664z"  horiz-adv-x="1024" />

    
    <glyph glyph-name="chaosu" unicode="&#58897;" d="M685.508204 425.47109 380.270871 111.415979C369.321899 100.15071 369.578308 82.14251 380.843577 71.193537 392.108846 60.244565 410.117046 60.500975 421.066018 71.766244L726.303351 385.821355C737.252324 397.086623 736.995914 415.094824 725.730645 426.043796 714.465377 436.992768 696.457176 436.736358 685.508204 425.47109L685.508204 425.47109ZM567.064835 680.986813 262.595502 367.699701C251.646928 356.434045 251.903975 338.425853 263.169632 327.477279 274.435288 316.528705 292.44348 316.785752 303.392053 328.05141L607.861387 641.338521C618.809961 652.604177 618.552914 670.612369 607.287256 681.560942 596.021601 692.509516 578.013409 692.252469 567.064835 680.986813L567.064835 680.986813ZM282.993778 316.871111 463.815111 316.871111C479.524543 316.871111 492.259556 329.606124 492.259556 345.315556 492.259556 361.024987 479.524543 373.76 463.815111 373.76L282.993778 373.76C267.284345 373.76 254.549333 361.024987 254.549333 345.315556 254.549333 329.606124 267.284345 316.871111 282.993778 316.871111L282.993778 316.871111ZM534.129778 378.851556 706.503111 378.851556C722.212543 378.851556 734.947556 391.586569 734.947556 407.296 734.947556 423.005431 722.212543 435.740444 706.503111 435.740444L534.129778 435.740444C518.420346 435.740444 505.685333 423.005431 505.685333 407.296 505.685333 391.586569 518.420346 378.851556 534.129778 378.851556L534.129778 378.851556ZM427.263747 86.923506 490.694858 335.670172C494.576589 350.892473 485.383239 366.379349 470.160939 370.26108 454.938638 374.142811 439.451762 364.949461 435.570031 349.727161L372.13892 100.980494C368.257189 85.758194 377.450539 70.271317 392.672839 66.389586 407.89514 62.507856 423.382016 71.701205 427.263747 86.923506L427.263747 86.923506ZM559.37338 403.594505 615.494269 652.284281C618.952397 667.608368 609.33314 682.834362 594.009051 686.292491 578.684965 689.75062 563.458972 680.131361 560.000842 664.807274L503.879953 416.117495C500.421825 400.793409 510.041082 385.567417 525.365171 382.109286 540.689257 378.651159 555.91525 388.270416 559.37338 403.594505L559.37338 403.594505ZM118.576868 472.724207C159.539758 659.693432 325.906791 795.151515 519.839861 795.151515 699.531008 795.151515 856.76232 678.731086 910.946921 510.362081 915.759465 495.407963 931.783509 487.186588 946.73763 491.999132 961.69175 496.811674 969.913125 512.835721 965.100581 527.789841 903.400951 719.510452 724.412968 852.040404 519.839861 852.040404 299.041286 852.040404 109.659841 697.843705 63.006047 484.899157 59.644027 469.553701 69.358523 454.388292 84.703981 451.026273 100.04944 447.66425 115.214848 457.378748 118.576868 472.724207L118.576868 472.724207ZM920.249671 292.226133C877.829476 107.070643 712.359691-26.416666 519.839861-26.416666 341.665823-26.416666 185.447366 88.069476 130.040216 254.42686 125.076111 269.331354 108.969429 277.389631 94.064935 272.425526 79.160441 267.461422 71.102164 251.354738 76.066269 236.450244 139.156913 47.023525 316.993354-83.305554 519.839861-83.305554 739.027513-83.305554 927.389807 68.649532 975.701845 279.521718 979.210072 294.834412 969.640658 310.091785 954.327964 313.600011 939.01527 317.108238 923.757898 307.538827 920.249671 292.226133L920.249671 292.226133ZM70.901747 252.966719 70.901747 53.356268C70.901747 37.646834 83.636758 24.911824 99.346191 24.911824 115.055624 24.911824 127.790636 37.646834 127.790636 53.356268L127.790636 252.966719C127.790636 268.67615 115.055624 281.411163 99.346191 281.411163 83.636758 281.411163 70.901747 268.67615 70.901747 252.966719L70.901747 252.966719ZM912.231273 712.042234 912.231273 512.460302C912.231273 496.750868 924.966286 484.015858 940.675718 484.015858 956.385152 484.015858 969.120162 496.750868 969.120162 512.460302L969.120162 712.042234C969.120162 727.751667 956.385152 740.486679 940.675718 740.486679 924.966286 740.486679 912.231273 727.751667 912.231273 712.042234L912.231273 712.042234Z"  horiz-adv-x="1024" />

    
    <glyph glyph-name="wodecheliang" unicode="&#58912;" d="M1142.672278 622.747497h-109.667783a29.746011 29.746011 0 0 1-14.414528-3.924566l-49.442198 150.41725c-15.881656 85.533535-75.483712 126.759819-148.766731 126.759819H355.851783c-84.139764 0-135.23248-55.384064-148.766732-126.686462L157.496141 618.382793a29.929402 29.929402 0 0 1-15.221449 4.364704H32.533553a30.699644 30.699644 0 0 1-30.552931-30.846356v-26.775078c0-17.018679 13.717642-30.846356 30.552931-30.846356l41.556387-7.152247c-13.130791-25.894801-20.613142-55.494099-20.613141-89.934917l-15.331483-177.449075c0-5.208303 0.366782-10.379927 0.990311-15.734943-0.623529-3.301037-0.953633-6.67543-0.990311-9.976467v-213.430378c0-30.36954 24.464352-55.017282 54.503788-55.017283h83.259487c30.076114 0 54.46711 24.647743 54.46711 55.017283v68.588212h356.548668S542.837187 304.710926 766.574135 427.949639c210.129341 97.197199 361.316833-50.139083 361.316833-50.139083l-5.208302 59.381987c0 34.550853-7.445672 64.150151-20.613142 90.154986l40.602754 6.968856a30.662965 30.662965 0 0 1 30.516253 30.809678v26.775078a30.699644 30.699644 0 0 1-30.516253 30.846356zM243.763239 654.364095l36.311407 97.563981 0.513494 2.310726c3.631141 19.732865 11.700342 23.217293 23.620754 38.47542h568.548597c12.030446-15.698265 19.549474-19.659509 22.850511-38.255351l36.898257-100.094776 13.460895-54.357075c-3.007611-39.795834-50.359153-71.192363-89.788205-71.192363H320.090549c-39.429052 0-86.780594 31.396529-89.861561 71.192363l13.534251 54.357075z m25.454663-463.979081a82.929384 82.929384 0 0 0-82.525924 83.296165 82.892706 82.892706 0 0 0 82.525924 83.332844 82.892706 82.892706 0 0 0 82.525924-83.332844 82.892706 82.892706 0 0 0-82.525924-83.296165z m327.756291 36.678188h-122.835253a24.647743 24.647743 0 0 0-24.537708 24.794455v69.65188c0 13.644286 11.003456 24.757777 24.537708 24.757777h187.352186s-21.640131-25.344628-38.035281-55.347386c-14.744632-25.748088-26.481652-63.856726-26.481652-63.856726zM910.059208 398.276985a263.129323 263.129323 0 1 1 0-526.258646 263.129323 263.129323 0 0 1 0 526.258646z m0-465.629601a202.500278 202.500278 0 1 0 0 405.000556 202.500278 202.500278 0 0 0 0-405.000556zM908.775471 291.653491a71.852571 71.852571 0 0 0 30.149471-6.968855c4.291348-1.943944 8.399305-4.364704 12.177159-7.225603 3.080968-2.274048 5.831832-5.024912 8.252592-8.10588 4.65813-6.088579 8.179236-13.020757 10.379927-20.393073 2.0173-6.968856 3.594462-14.084424 4.584774-21.236671 0.916955-7.775776 1.430449-15.624908 1.430449-23.437362a11.113491 11.113491 0 0 0 3.007612-3.814532 23.29065 23.29065 0 0 0 1.870587-13.057435 30.589609 30.589609 0 0 0-2.274047-9.683041 19.769543 19.769543 0 0 0-3.997923-5.648441 13.864355 13.864355 0 0 0-5.171624-3.154325l-2.64083-9.242903a94.73976 94.73976 0 0 0-3.154324-7.372316 18.962623 18.962623 0 0 0-3.961244-5.611763 176.165338 176.165338 0 0 1-8.399306-7.372316 18.339094 18.339094 0 0 1-4.364704-10.269892 35.101026 35.101026 0 0 1-0.586851-8.802766 26.408296 26.408296 0 0 1 8.50934-17.385461c3.557784-3.080968 7.592385-5.501728 11.957089-7.225603a124.70584 124.70584 0 0 1 14.817988-5.244981c5.318337-1.503806 10.453284-3.301037 15.624908-5.318337 4.804843-1.943944 9.31626-4.438061 13.460895-7.592385a24.721099 24.721099 0 0 0 8.399306-12.250515c0.990311-3.777853 1.650518-7.519029 2.0173-11.443595 0.513495-4.511417 0.733564-9.096191 0.733564-13.75432 0-4.364704-0.366782-8.692731-0.990311-12.984079a26.224905 26.224905 0 0 0-2.787543-9.242903 14.964701 14.964701 0 0 0-7.812454-3.997923 153.424862 153.424862 0 0 0-15.698264-3.924566c-6.382005-1.21038-13.277504-2.310726-21.089959-3.337715a720.359618 720.359618 0 0 0-45.701022-4.034601 315.799201 315.799201 0 0 0-37.008292 0 698.05928 698.05928 0 0 0-21.640131 1.577162c-7.372316 0.733564-14.78131 1.430449-22.153626 2.310726a471.938249 471.938249 0 0 0-20.099647 2.750864 247.651127 247.651127 0 0 0-15.258127 2.860899 20.833211 20.833211 0 0 0-7.812454 2.934255 25.674732 25.674732 0 0 0-4.217991 14.157781 116.123144 116.123144 0 0 0 1.21038 30.662965 24.794455 24.794455 0 0 0 8.032523 16.358472 53.550155 53.550155 0 0 0 15.514874 8.876122c6.051901 2.274048 12.177159 4.217992 18.375772 5.941866 6.015223 1.577162 11.663664 4.071279 16.835288 7.519029a39.979225 39.979225 0 0 1 8.729409 7.188925 23.657431 23.657431 0 0 1 4.291348 6.895499 16.871967 16.871967 0 0 1 1.43045 7.225603c0 2.494117-0.073356 5.355015-0.293426 8.399305a15.99169 15.99169 0 0 1-4.364704 10.489962 158.999946 158.999946 0 0 1-8.435984 8.032523 19.072658 19.072658 0 0 0-3.814531 5.575085l-3.007612 7.372316c-0.916955 3.080968-1.870588 6.161936-2.640829 9.242903a11.847055 11.847055 0 0 0-3.814532 2.127335 24.757777 24.757777 0 0 0-3.63114 3.961244 25.344628 25.344628 0 0 0-3.227681 7.519029 20.466429 20.466429 0 0 0-1.21038 8.9128 28.792378 28.792378 0 0 0 1.430449 6.895499 18.045669 18.045669 0 0 0 3.631141 6.088579 147.152891 147.152891 0 0 0 4.914877 41.996526 63.453266 63.453266 0 0 0 8.582696 19.072658 50.982682 50.982682 0 0 0 11.553629 13.16747 59.051883 59.051883 0 0 0 12.984079 7.959166 70.165374 70.165374 0 0 0 26.371617 5.06159z"  horiz-adv-x="1173" />

    
    <glyph glyph-name="cheliang" unicode="&#58988;" d="M164.8-108.8c-7.2 0-14.4 0.8-21.6 1.6-81.6 10.4-143.2 79.2-143.2 160V315.2c0 59.2 33.6 116 91.2 155.2l64.8 184.8c0 0.8 0.8 1.6 0.8 2.4v4.8l5.6 11.2c22.4 43.2 64.8 124.8 173.6 124.8h352.8c108 0 150.4-80 173.6-124 1.6-2.4 2.4-4 3.2-5.6l1.6-1.6 68.8-197.6c56-40 89.6-96.8 89.6-155.2v-262.4c0-81.6-60-148.8-143.2-160-70.4-8.8-136.8 27.2-168 88l-405.6-1.6c-25.6-52.8-82.4-87.2-144-87.2z m612.8 174.4l8.8-32c10.4-38.4 46.4-62.4 87.2-56.8 40 4.8 68.8 36.8 68.8 75.2V315.2c0 48.8-48 82.4-62.4 91.2l-12.8 8-74.4 212c-0.8 2.4-2.4 4-2.4 5.6l-1.6 3.2c-24 46.4-45.6 79.2-98.4 79.2H336.8c-52 0-73.6-31.2-96.8-76v-0.8l-78.4-223.2-13.6-8c-15.2-8.8-63.2-41.6-63.2-91.2v-262.4c0-38.4 29.6-70.4 68.8-75.2 39.2-4.8 76.8 18.4 87.2 55.2l8.8 31.2 528 1.6zM713.6 344h-400c-22.4 0-40 17.6-40 40s17.6 40 40 40h400c22.4 0 40-17.6 40-40s-17.6-40-40-40z"  horiz-adv-x="1027" />

    
    <glyph glyph-name="shujuhuichuan" unicode="&#58896;" d="M0 230.4l409.6 307.2v-153.6h204.8v-80.5376l256 182.8864-256 182.8352V588.8H256V640h307.2V793.6l409.6-307.2-409.6-307.2v153.6H358.4V413.3376L102.4 230.4l256-182.8352V128h358.4v-51.2H409.6v-153.6z"  horiz-adv-x="1024" />

    
    <glyph glyph-name="weifaguanli" unicode="&#58932;" d="M1020.598007 385.700997C1020.598007 667.532332 792.130339 896 510.299003 896S0 667.532332 0 385.700997s228.467668-510.299003 510.299003-510.299004v68.039867c-244.252917 0-442.259136 198.006219-442.259136 442.259137S266.046086 827.960133 510.299003 827.960133s442.259136-198.006219 442.259137-442.259136h68.039867zM510.299003 79.521595h68.039867v-204.119602h-68.039867zM816.478405-63.362126h64.637874v-64.637874h-64.637874zM881.116279 219.003322v-238.139535h-64.637874v238.139535zM816.478405 317.66113v68.039867h204.119602v-68.039867zM541.383017 219.003322v118.147828H411.641196v54.326431h129.741821v42.722233h-107.50299V486.944319h107.50299v39.558379h-127.09507V580.301821h127.09507V627.242525h59.841063v-46.940704h138.740093v-53.799123h-138.743495v-39.558379h121.798166v-52.744505h-121.798166v-42.722233H748.438538s-0.530711-13.713435-1.588731-21.099162c-4.762791-70.676412-10.590405-103.907083-22.769541-116.562499-9.532385-11.07689-20.122791-15.298764-34.421369-16.353382-11.651827-1.581927-32.832638-2.109236-55.07487-1.054618-0.530711 15.822671-6.354924 36.394525-13.767868 50.10796 16.414618-1.581927 32.301927-2.109236 40.776293-2.109235 6.354924 0 10.590405 1.054618 14.825887 4.74578 4.235482 5.27309 7.943654 18.989927 11.124518 47.998725h-86.322179V219.003322h-59.841063zM401.435216 535.048505L350.983654 497.966777C335.749528 520.943841 300.538897 558.025568 272.159468 583.61196L319.45398 617.036545c28.379429-22.977063 64.637874-58.490472 81.981236-81.98804z m-11.757289-91.513621v-193.46796c10.05289-5.766379 21.69111-13.631787 38.09212-22.54501 34.387349-18.350352 81.998246-21.493794 138.076704-21.493794 55.020439 0 137.549395 4.194658 189.395774 11.532757-6.34812-15.727415-15.34299-43.514897-16.397608-59.769621-38.09212-2.619535-122.209807-5.242472-175.114206-5.242472-62.953887 0-106.863415 5.766379-144.955535 25.691854-22.74913 11.532757-39.677449 26.739668-52.373688 26.739668-16.397608 0-41.266179-30.934326-62.953887-60.820838L265.355482 197.114897c21.160399 20.969887 43.382219 37.748518 64.011907 48.233462v140.512531H269.587561V443.534884h120.090366z"  horiz-adv-x="1024" />

    
    <glyph glyph-name="shouqizhankai" unicode="&#58909;" d="M479.488 221.184c18.0224-21.6576 47.0016-22.016 65.2288 0l188.16 226.048c18.0224 21.6064 9.5232 39.168-17.8176 39.168H309.1968c-27.904 0-36.096-17.2544-17.8688-39.168l188.16-226.0992z"  horiz-adv-x="1024" />

    
    <glyph glyph-name="shebei1" unicode="&#58956;" d="M905.629593 383.872032H669.592602v197.134716a39.414146 39.414146 0 1 1-78.764309 0v-197.134716h-472.457886a118.306423 118.306423 0 0 1-118.114471-118.114471v-275.64309a118.306423 118.306423 0 0 1 118.114471-118.114471h787.451138a118.306423 118.306423 0 0 1 118.114471 118.114471v275.899026a118.306423 118.306423 0 0 1-118.306423 117.858535z m39.414146-393.757561a39.542114 39.542114 0 0 0-39.414146-39.414146h-787.515122a39.542114 39.542114 0 0 0-39.414146 39.414146v275.899026a39.47813 39.47813 0 0 0 39.414146 39.350162h787.451138a39.47813 39.47813 0 0 0 39.414146-39.350162zM216.585854 128.191952m-59.057236 0a59.057236 59.057236 0 1 1 118.114471 0 59.057236 59.057236 0 1 1-118.114471 0ZM452.814796 128.191952m-59.057235 0a59.057236 59.057236 0 1 1 118.114471 0 59.057236 59.057236 0 1 1-118.114471 0ZM786.043489 537.689578h1.087728a38.390402 38.390402 0 0 1 39.286179 37.686578c0 1.343664 0.31992 4.414896 0.31992 5.630592a196.87878 196.87878 0 1 1-393.757561 0 30.264434 30.264434 0 0 1 0-4.286928 39.414146 39.414146 0 0 1 78.764309 1.983504v3.583104a118.114471 118.114471 0 0 0 236.228943 0v-3.455136a39.79805 39.79805 0 0 1 38.070482-41.141714zM354.535366 538.329418h0.703824a39.350162 39.350162 0 0 1 38.390403 39.990002v2.55936a236.292927 236.292927 0 0 0 472.521869 0.831792v-3.455136a38.390402 38.390402 0 0 1 37.750562-39.286178 39.926018 39.926018 0 0 1 40.949763 37.55861v4.414896a314.993252 314.993252 0 0 1-629.986503 0v-3.903024a39.47813 39.47813 0 0 1 39.670082-38.710322z"  horiz-adv-x="1024" />

    
    <glyph glyph-name="cesu" unicode="&#58889;" d="M298.950134-49.965062C154.60491 34.30816 64 188.710867 64 358.912 64 620.182888 275.817112 832 537.088 832 798.331523 832 1010.144 620.178253 1010.144 358.912 1010.144 188.206819 919.010928 33.430755 773.996541-50.65296 758.707619-59.517939 753.499984-79.098541 762.36496-94.387459 771.229939-109.676381 790.810541-114.884016 806.099459-106.01904 970.660954-10.601322 1074.144 165.14935 1074.144 358.912 1074.144 655.52385 833.678374 896 537.088 896 240.470888 896 0 655.529112 0 358.912 0 165.721616 102.882551-9.603808 266.681866-105.234938 281.94422-114.145571 301.5403-108.99649 310.450936-93.734134 319.361573-78.471779 314.212488-58.875699 298.950134-49.965062L298.950134-49.965062ZM505.088 864 505.088 769.024C505.088 751.350888 519.41489 737.024 537.088 737.024 554.76111 737.024 569.088 751.350888 569.088 769.024L569.088 864C569.088 881.673112 554.76111 896 537.088 896 519.41489 896 505.088 881.673112 505.088 864L505.088 864ZM944.321974 623.176808 877.153974 556.040806C864.654221 543.547008 864.649392 523.285728 877.143194 510.785974 889.636992 498.286221 909.898272 498.281392 922.398026 510.775194L989.566026 577.911192C1002.065779 590.404992 1002.070608 610.66627 989.576806 623.166025 977.083008 635.66578 956.821728 635.670607 944.321974 623.176808L944.321974 623.176808ZM218.492583 109.763418 151.324583 42.595418C138.827806 30.09864 138.827806 9.83736 151.324583-2.659418 163.82136-15.156195 184.08264-15.156195 196.579417-2.659418L263.747417 64.508582C276.244194 77.00536 276.244194 97.26664 263.747417 109.763418 251.25064 122.260195 230.98936 122.260195 218.492583 109.763418L218.492583 109.763418ZM925.864806 42.590026 858.728806 109.758026C846.235008 122.257779 825.973728 122.262608 813.473974 109.768806 800.974221 97.275008 800.969392 77.013728 813.463194 64.513974L880.599194-2.654026C893.092992-15.153779 913.354272-15.158608 925.854026-2.664806 938.353779 9.828992 938.358608 30.090272 925.864806 42.590026L925.864806 42.590026ZM204.739417 556.035418 137.603417 623.171417C125.10664 635.668194 104.84536 635.668194 92.348583 623.171417 79.851806 610.67464 79.851806 590.41336 92.348583 577.916583L159.484583 510.780582C171.98136 498.283805 192.24264 498.283805 204.739417 510.780582 217.236194 523.27736 217.236194 543.53864 204.739417 556.035418L204.739417 556.035418ZM597.270829 462.252358 797.661414 662.628247C810.15865 675.124566 830.419926 675.123823 842.916246 662.626587 855.412566 650.129351 855.411824 629.868072 842.914586 617.371753L643.078368 417.550192C654.000528 399.15743 660.272 377.679104 660.272 354.736 660.272 286.694518 605.113482 231.536 537.072 231.536 514.125664 231.536 492.644522 237.809238 474.250042 248.734246L406.626586 181.115754C394.12935 168.619434 373.868074 168.620176 361.371754 181.117414 348.875434 193.61465 348.876176 213.875926 361.373414 226.372246L429.551219 294.545053C419.565763 312.344138 413.872 332.875146 413.872 354.736 413.872 422.777482 469.030518 477.936 537.072 477.936 558.93608 477.936 579.46992 472.240557 597.270829 462.252358Z"  horiz-adv-x="1088" />

    
    <glyph glyph-name="liantonglongmenjia" unicode="&#58915;" d="M1072.989355 889.876331a36.742017 36.742017 0 0 1-36.742016-36.742017H79.730176a36.742017 36.742017 0 0 1-73.484033 0v-938.146155a36.742017 36.742017 0 1 1 73.484033 0V369.36442999999997l55.113025-7.470877v-355.172826a36.742017 36.742017 0 1 1 73.484033 0V724.5372560000001h699.0781v-717.571582a36.742017 36.742017 0 1 1 73.484033 0v355.172826l55.357972 7.22593v-454.376271a36.742017 36.742017 0 1 1 73.484033 0V853.134314a36.742017 36.742017 0 0 1-36.742017 36.742017zM134.720727 435.50006L79.730176 442.848463V798.021289L134.720727 742.663318z m901.404138 7.348403l-55.235498-7.348403V742.663318L1036.247339 798.021289z"  horiz-adv-x="1115" />

    
    <glyph glyph-name="dianjing" unicode="&#59252;" d="M438.270847 372.626893l6.036195-122.987466L43.708517 490.063216A51.199865 51.199865 0 0 0 25.492144 559.695032L204.853356 870.397373A51.199865 51.199865 0 0 0 274.754646 889.152692l365.567038-213.907648-127.676296-43.8702-244.735356 143.521306-128.484714-222.584677L438.270847 372.680788z m11.156181-228.189715l1.347365-27.270665a51.199865 51.199865 0 0 0-75.506327-33.091282l-30.288763 17.515744-90.758498-172.570493a51.199865 51.199865 0 0 0-49.367449-37.726217H51.307655a51.199865 51.199865 0 1 0 0 102.345836h118.729793l84.291146 160.282526-56.319851 32.49844a51.199865 51.199865 0 0 0 51.199865 88.656609l177.205428-102.39973c11.317865-6.467351 19.24037-16.707324 23.012992-28.240768z m333.068597-153.437912l-152.629493 95.393433c-72.703809 47.103876-118.029163 123.688096-118.029163 206.146826V551.610843c0 12.934703 8.407557 21.180576 21.503944 21.180576 94.153857 0 184.750672 31.797811 245.543775 89.518922a21.018892 21.018892 0 0 0 29.803711 0c60.793103-57.667217 150.150342-89.465028 245.543774-89.465027 10.725024 0 21.450049-8.299768 21.450049-21.234471L1078.053584 466.834645l-2.371362-174.29512c0-82.45873-42.900098-158.989055-118.029163-206.146826l-152.521704-95.393433a38.265162 38.265162 0 0 0-11.9646-4.742725 66.613719 66.613719 0 0 0-10.725024 4.742725z m114.741593 191.703074c41.822206 26.246668 64.673514 66.452036 64.727409 111.346234l2.425257 169.60629-0.10779 3.125887a470.230341 470.230341 0 0 0-170.360814 64.188462 473.194544 473.194544 0 0 0-168.312821-63.703411v-174.726277c0-41.822206 24.036989-83.428833 64.565725-109.729396l103.585412-64.781303 103.477622 64.673514z"  horiz-adv-x="1078" />

    
    <glyph glyph-name="jiankong1" unicode="&#59073;" d="M687.381215 171.845304c0-16.972376-11.314917-28.287293-28.287292-28.287293h-282.872929c-16.972376 0-28.287293 11.314917-28.287292 28.287293s11.314917 28.287293 28.287292 28.287293h282.872929c11.314917 0 28.287293-11.314917 28.287292-28.287293zM964.596685 443.403315c0 248.928177-203.668508 452.596685-452.596685 452.596685S59.403315 692.331492 59.403315 443.403315c0-186.696133 113.149171-345.104972 271.558011-412.994475v-67.889503H257.414365c-22.629834 0-45.259669-16.972376-45.259669-45.259668 0-22.629834 16.972376-45.259669 45.259669-45.259669h509.17127c22.629834 0 45.259669 16.972376 45.259669 45.259669 0 22.629834-16.972376 45.259669-45.259669 45.259668h-67.889502v56.574586 11.314917C851.447514 98.298343 964.596685 256.707182 964.596685 443.403315z m-350.762431-480.883978H410.165746v39.60221c33.944751-5.657459 67.889503-11.314917 101.834254-11.314917s67.889503 5.657459 101.834254 11.314917v-39.60221zM512 81.325967c-198.01105 0-362.077348 164.066298-362.077348 362.077348S313.98895 805.480663 512 805.480663s362.077348-164.066298 362.077348-362.077348-164.066298-362.077348-362.077348-362.077348zM512 737.59116C381.878453 737.59116 274.38674 630.099448 274.38674 499.977901s107.491713-237.61326 237.61326-237.61326c130.121547 0 237.61326 107.491713 237.61326 237.61326S642.121547 737.59116 512 737.59116z m0-412.994475c-96.176796 0-175.381215 79.20442-175.381215 175.381216S415.823204 675.359116 512 675.359116s175.381215-79.20442 175.381215-175.381215-79.20442-175.381215-175.381215-175.381216z"  horiz-adv-x="1024" />

    
    <glyph glyph-name="kakou" unicode="&#59270;" d="M632.968533 101.444267L369.664 216.746667c-24.9856 10.513067-54.408533 0-65.672533-23.483734-10.922667-23.005867-0.477867-49.9712 23.620266-60.962133l73.659734-32.085333-60.893867-112.503467-221.866667 2.389333c-26.692267 0.955733-49.152-18.568533-50.244266-43.6224v-2.4576c-0.341333-25.736533 21.640533-46.830933 49.083733-47.172266l283.579733-3.140267 90.248534 166.980267 99.7376-43.690667c25.122133-10.513067 54.4768 0 65.672533 23.483733 10.922667 23.005867 0.546133 50.039467-23.620267 61.0304z m646.7584 11.332266l-108.817066 40.004267L1329.834667 362.154667l46.830933-17.2032-96.938667-232.106667z m151.893334 254.5664a24.302933 24.302933 0 0 1-13.858134 12.356267l-88.064 32.5632a25.941333 25.941333 0 0 1-29.2864-8.192l-188.416-248.490667a22.254933 22.254933 0 0 1-3.549866-20.2752c2.116267-6.894933 7.645867-12.4928 14.7456-15.018666l161.450666-59.460267a25.258667 25.258667 0 0 1 32.085334 13.1072l115.0976 275.524267a22.254933 22.254933 0 0 1-0.2048 17.885866z m-492.1344-203.912533L214.766933 430.421333l145.066667 347.272534 818.722133-301.533867-239.069866-312.661333z m364.1344 347.272533a47.786667 47.786667 0 0 1-29.4912 30.3104L349.7984 881.390933C324.266667 890.743467 295.458133 879.0016 285.354667 855.04L104.106667 421.000533c-9.8304-23.9616 2.594133-50.858667 27.989333-60.416l806.980267-297.233066c21.162667-7.509333 45.124267-0.955733 58.504533 16.1792l298.666667 390.7584a43.963733 43.963733 0 0 1 7.3728 40.413866z"  horiz-adv-x="1501" />

    
    <glyph glyph-name="shangsheng" unicode="&#59225;" d="M127.9 0L512 768l384.2-768L512 157.2 127.9 0z"  horiz-adv-x="1024" />

    
    <glyph glyph-name="paixu1" unicode="&#58916;" d="M914.0754963 17.605214820000015c20.02488889 0 33.49617778-20.02488889 33.49617778-33.49617779 0-20.14625185-13.34992592-33.49617778-33.49617778-33.49617778H43.66032592c-20.14625185 0-33.49617778 13.34992592-33.49617777 33.49617778 0 13.34992592 13.34992592 33.49617778 33.49617777 33.49617779h870.41517038zM445.37173333 419.19525925c20.02488889 0 33.49617778-20.02488889 33.49617778-33.49617777 0-20.02488889-13.34992592-33.49617778-33.49617778-33.49617778h-401.71140741c-20.14625185 0-33.49617778 13.34992592-33.49617777 33.49617778 0 13.34992592 13.34992592 33.49617778 33.49617777 33.49617777h401.71140741z m0 401.71140742c20.02488889 0 33.49617778-20.14625185 33.49617778-33.49617778 0-20.02488889-13.34992592-33.49617778-33.49617778-33.49617778h-401.71140741c-20.14625185 0-33.49617778 13.34992592-33.49617777 33.49617778 0 13.34992592 13.34992592 33.49617778 33.49617777 33.49617778h401.71140741z m334.71905185-615.91703704L967.59656297 392.49540741l46.8461037-46.84610371-214.20562964-214.32699259c-13.34992592-13.34992592-33.49617778-13.34992592-46.8461037 0L539.06394075 345.6493037 586.03140741 392.49540741l194.05937777-187.50577778zM586.03140741 392.49540741M773.41582222 820.90666667c20.02488889 0 33.49617778-20.14625185 33.49617778-33.49617778v-569.07093334c0-20.02488889-13.34992592-33.49617778-33.49617778-33.49617777-20.02488889 0-33.49617778 13.34992592-33.49617777 33.49617777V787.41048889c0 20.14625185 13.47128889 33.49617778 33.49617777 33.49617778z m0 0"  horiz-adv-x="1024" />

    
    <glyph glyph-name="paixu3" unicode="&#58885;" d="M36.8 748.8h876.8c12.8 0 25.6 6.4 32 19.2 6.4 10.666667 6.4 25.6 0 36.266667s-19.2 19.2-32 19.2H36.8C17.6 823.466667 0.533333 806.4 0.533333 787.2c0-21.333333 17.066667-38.4 36.266667-38.4zM36.8 384h439.466667c19.2 0 36.266667 17.066667 36.266666 36.266667 0 19.2-17.066667 36.266667-36.266666 36.266666H36.8c-19.2 0-36.266667-17.066667-36.266667-36.266666 0-19.2 17.066667-36.266667 36.266667-36.266667zM36.8-55.466667h292.266667c12.8 0 25.6 6.4 32 19.2 6.4 10.666667 6.4 25.6 0 36.266667s-19.2 19.2-32 19.2H36.8c-12.8 0-25.6-6.4-32-19.2-6.4-10.666667-6.4-25.6 0-36.266667s19.2-19.2 32-19.2zM877.333333 567.466667c0 12.8-6.4 25.6-19.2 32-10.666667 6.4-25.6 6.4-36.266666 0s-19.2-19.2-19.2-32v-512c0-12.8 6.4-25.6 19.2-32 10.666667-6.4 25.6-6.4 36.266666 0s19.2 19.2 19.2 32v512zM721.6 153.6c-14.933333 14.933333-38.4 14.933333-51.2 0-14.933333-14.933333-14.933333-38.4 0-51.2l147.2-147.2c14.933333-14.933333 38.4-14.933333 51.2 0 14.933333 14.933333 14.933333 38.4 0 51.2l-147.2 147.2z m0 0M815.466667 8.533333c-14.933333-14.933333-14.933333-38.4 0-51.2 14.933333-14.933333 38.4-14.933333 51.2 0l147.2 147.2c14.933333 14.933333 14.933333 38.4 0 51.2-14.933333 14.933333-38.4 14.933333-51.2 0l-147.2-147.2z m0 0"  horiz-adv-x="1025" />

    
    <glyph glyph-name="video-control" unicode="&#58884;" d="M511.996157 894.720288C229.933078 894.720288 1.275869 666.063079 1.275869 384c0-282.063079 228.657209-510.720288 510.720288-510.720288 282.070765 0 510.720288 228.657209 510.720288 510.720288C1022.720288 666.066922 794.066922 894.720288 511.996157 894.720288z m249.459251-520.727404c-25.905517-15.156706-329.381671-192.31032-344.565278-201.079997-18.953569-10.960174-38.122345 2.982151-38.122345 21.716671V597.60042c0 20.640636 21.186339 30.663124 37.34222 21.582167 22.070224-12.370547 326.691586-190.423418 345.345403-201.533469 16.732328-9.968686 17.005179-33.70292 0-43.656234z"  horiz-adv-x="1024" />

    
    <glyph glyph-name="zanting" unicode="&#58883;" d="M512-128C229.232-128 0 101.23199999999997 0 384 0 666.768 229.232 896 512 896c282.768 0 512-229.232 512-512 0-282.768-229.232-512-512-512zM352 592a32 32 0 0 1-32-32v-352a32 32 0 0 1 32-32h64a32 32 0 0 1 32 32V560a32 32 0 0 1-32 32h-64z m256 0a32 32 0 0 1-32-32v-352a32 32 0 0 1 32-32h64a32 32 0 0 1 32 32V560a32 32 0 0 1-32 32h-64z"  horiz-adv-x="1024" />

    
    <glyph glyph-name="jiankong" unicode="&#58900;" d="M607.355 152.494c59.883-21.75 98.017-62.669 98.017-108.994H310.436c0 46.325 40.878 87.244 103.506 108.994-114.36 40.878-196.117 149.832-196.117 277.873 0 163.43 130.745 294.215 294.175 294.215s294.175-130.744 294.175-294.215c0-128.082-81.675-237.036-198.82-277.873z m-89.907 367.739c-84.46 0-155.28-70.82-155.28-155.238 0-84.46 70.82-155.32 155.28-155.32 87.163 0 155.32 70.86 155.32 155.32 0 84.418-68.157 155.238-155.32 155.238z m0-239.698c-40.878 0-76.227 32.686-76.227 76.268 0 40.837 35.349 76.226 76.227 76.226 40.837 0 76.226-32.727 76.226-76.226 0-40.879-32.604-76.268-76.226-76.268z m0 0"  horiz-adv-x="1024" />

    
    <glyph glyph-name="sousuo" unicode="&#59094;" d="M1023.662186-67.953485 963.953485-127.662186 688.128 148.163299C615.32899 88.623505 523.612371 51.463918 422.268041 51.463918 189.091629 51.463918 0 240.555546 0 473.731959 0 706.908371 189.091629 896 422.268041 896 655.444454 896 844.536082 706.908371 844.536082 473.731959 844.536082 372.387629 807.376495 280.67101 747.836701 207.872L1023.662186-67.953485ZM422.268041 811.546392C235.710021 811.546392 84.453608 660.289979 84.453608 473.731959 84.453608 287.173938 235.710021 135.917526 422.268041 135.917526 608.826062 135.917526 760.082474 287.173938 760.082474 473.731959 760.082474 660.289979 608.826062 811.546392 422.268041 811.546392Z"  horiz-adv-x="1024" />

    
    <glyph glyph-name="guanbi-" unicode="&#58891;" d="M29.824 384C29.824 650.688 245.824 866.688 512 866.688a482.304 482.304 0 0 0 482.176-482.176V384A481.664 481.664 0 0 0 512-98.176 481.984 481.984 0 0 0 29.824 384z m514.432 0l168.384 168.384a21.888 21.888 0 0 1 0 31.232l-1.024 1.024a21.888 21.888 0 0 1-31.232 0L512 415.68l-168.384 168.96a21.888 21.888 0 0 1-31.232 0l-1.024-1.024a21.888 21.888 0 0 1 0-31.232l168.384-168.896-168.384-168.384a21.888 21.888 0 0 1 0-31.232l1.024-1.024a21.888 21.888 0 0 1 31.232 0L512 351.232l168.384-168.384a21.888 21.888 0 0 1 31.232 0l1.024 1.024a21.888 21.888 0 0 1 0 31.232L544.256 384z"  horiz-adv-x="1024" />

    
    <glyph glyph-name="fold" unicode="&#58881;" d="M507.58399999 159.93600000000004a32.896 32.896 0 0 0-23.35999999 9.664L110.912 542.912a33.024 33.024 0 0 0 46.72 46.656l373.312-373.248a33.024 33.024 0 0 0-23.36000001-56.384M507.58399999 159.93600000000004a32.896 32.896 0 0 0-23.35999999 56.32l382.144 382.08a33.024 33.024 0 0 0 46.656-46.656l-382.016-382.08a33.152 33.152 0 0 0-23.42400001-9.664"  horiz-adv-x="1024" />

    
    <glyph glyph-name="fold-off" unicode="&#58882;" d="M516.41600001 608.0640000000001a32.896 32.896 0 0 0 23.35999999-9.664L913.088 225.08799999999997a33.024 33.024 0 0 0-46.72-46.656l-373.312 373.248a33.024 33.024 0 0 0 23.36000001 56.384M516.41600001 608.0640000000001a32.896 32.896 0 0 0 23.35999999-56.32l-382.144-382.08a33.024 33.024 0 0 0-46.656 46.656l382.016 382.08a33.152 33.152 0 0 0 23.42400001 9.664"  horiz-adv-x="1024" />

    
    <glyph glyph-name="shijian" unicode="&#58943;" d="M771.109082 353.295734a31.090337 31.090337 0 0 1-30.696788 31.090337h-202.283965V600.837785a31.090337 31.090337 0 0 1-62.180675 0v-247.542051a28.729046 28.729046 0 0 1 2.361292-11.806457 43.290343 43.290343 0 0 1 3.541937-5.50968 39.354857 39.354857 0 0 1 3.148389-4.329034 12.593554 12.593554 0 0 1 4.722582-3.148389 23.612914 23.612914 0 0 1 5.116132-3.541937 32.270983 32.270983 0 0 1 12.200005-2.75484h233.374303a31.090337 31.090337 0 0 1 30.696788 31.090337z m118.064572 27.5484a31.090337 31.090337 0 1 1 0-62.180674H905.702693a31.090337 31.090337 0 0 1 0 62.180674z m131.838771 53.129057a31.090337 31.090337 0 0 1-61.787126-5.903229c0-14.167749 1.967743-28.729046 1.967743-42.896794a448.251822 448.251822 0 1 0-215.271068 383.316308l-39.354857-53.522606a39.354857 39.354857 0 0 1 29.122594-59.819382l178.671051-3.935486A36.993566 36.993566 0 0 1 950.173682 699.224928L897.438173 869.631459a36.993566 36.993566 0 0 1-64.935514 11.412908L783.309088 817.289499a39.354857 39.354857 0 0 1-5.903229 5.50968A513.974433 513.974433 0 0 1 512.154123 895.999213a511.613142 511.613142 0 0 1-362.064685-149.548457A516.729273 516.729273 0 0 1 39.895838 583.915196a511.613142 511.613142 0 0 1 110.1936-560.019616A511.613142 511.613142 0 0 1 312.624998-87.872214a511.613142 511.613142 0 0 1 560.019616 109.406503A511.613142 511.613142 0 0 1 984.412408 187.611786a505.709913 505.709913 0 0 1 39.354857 196.774285c0 16.922589 0 33.451628-3.541937 49.58712z m-511.613142 302.245302a31.483886 31.483886 0 0 1 31.090337 31.090337v14.167749a31.090337 31.090337 0 0 1-62.180674 0v-14.167749a31.090337 31.090337 0 0 1 29.516143-31.090337z m-31.483886-737.510021v-14.167749a31.090337 31.090337 0 0 1 62.180674 0v14.167749a31.090337 31.090337 0 0 1-62.180674 0zM118.605552 380.844134a31.090337 31.090337 0 0 1 0-62.180674h14.167749a31.090337 31.090337 0 0 1 0 62.180674z"  horiz-adv-x="1025" />

    
    <glyph glyph-name="shaixuan" unicode="&#59011;" d="M414.939429 896v-1021.366857H223.451429V544.914286H0L414.939429 896z m382.976 0v-659.602286h223.451428L606.354286-125.366857V896h191.488z"  horiz-adv-x="1024" />

    
    <glyph glyph-name="xiajiang" unicode="&#58895;" d="M510.365727 51.465154l258.939091 333.367155-172.601496-0.439274V717.313691H424.993379l-0.965247-332.920656H251.426636l258.939091-332.927881z m0 0"  horiz-adv-x="1024" />

    
    <glyph glyph-name="quanping" unicode="&#59165;" d="M348.373 270.293l-128-128-64-64v128a33.28 33.28 0 0 1-35.413 35.414 33.493 33.493 0 0 1-35.627-35.414V-7.04a33.707 33.707 0 0 1 35.627-35.627h213.333a35.627 35.627 0 0 1 0 71.04h-128l64 64 128 128a35.2 35.2 0 0 1-49.92 49.92z m-142.08 469.334h128a33.28 33.28 0 0 1 35.414 35.413 33.493 33.493 0 0 1-35.414 35.627H113.707c-7.04 0-14.08-7.04-21.334-14.294a26.027 26.027 0 0 1-7.04-21.333v-213.333a33.493 33.493 0 0 1 35.627-35.414 33.28 33.28 0 0 1 35.413 35.414v128l192-192a35.2 35.2 0 0 1 49.92 49.92z m696.747 71.04H689.707a33.493 33.493 0 0 1-35.414-35.627 33.28 33.28 0 0 1 35.414-35.413h128l-64-64-128-128a35.2 35.2 0 0 1 49.92-49.92l128 128 64 64v-128a35.627 35.627 0 0 1 71.04 0V775.04a33.707 33.707 0 0 1-35.627 35.627z m0-568.96a33.28 33.28 0 0 1-35.413-35.414v-128l-64 64-128 128a35.2 35.2 0 0 1-49.92-49.92l128-128 64-64h-128a35.627 35.627 0 0 1 0-71.04H903.04a33.707 33.707 0 0 1 35.627 35.627V206.293a33.493 33.493 0 0 1-35.627 35.414z"  horiz-adv-x="1024" />

    
    <glyph glyph-name="delete" unicode="&#58880;" d="M512 454.30748639651154L254.3219023179334 712.043592649218a49.71412125496538 49.71412125496538 0 1 1-70.30748492361464-70.30748639651151L441.63450503284866 384l-257.7361077256034-257.6780976820668a49.71412125496538 49.71412125496538 0 1 1 70.30748639651151-70.30748492361464L512 313.63450503284855l257.6780976820668-257.7361077256034a49.71412125496538 49.71412125496538 0 1 1 70.30748492361464 70.30748639651151L582.3654949671514 384l257.7361077256034 257.6780976820668a49.71412125496538 49.71412125496538 0 1 1-70.30748639651151 70.30748492361464L512 454.36549496715134z"  horiz-adv-x="1024" />

    
    <glyph glyph-name="jt-right" unicode="&#58919;" d="M112.07133333 337.92033333999996l740.267-367.787c4.869-2.505 10.625-3.97500001 16.723-3.982l3.188 1e-8 0.853 0.14199998 0.71100001 1e-8 1.28099999 0.142 0.42699999 0 1.707 0.569c4.52300001 0.809 8.534 2.551 11.98700001 5.02200001l-1.32-1.04000001c5.183 2.742 9.453 6.576 12.625 11.221l-5.798-6.52799999 1.28 1.28 0.427 0.28399999 0.99599999 0.996 0.427 0.569c0.734 0.692 1.295 1.557 1.61700001 2.53199999l-0.053-0.82699998 0.56899999 0.71099999 0.71100001 0.996 0.42700001 0.569 0.99599999 1.28000001 0.142 0.28399999c0.894 1.236 1.537 2.713 1.82400001 4.314l-0.82800001-2.466c2.486 3.835 4.134 8.428 4.58100001 13.369l-0.59900001-4.125c1.169 3.499 1.867 7.531 1.919 11.718l-0.07 5.065-0.141 1.564 0 0.141c-1.023 6.584-3.348 12.475-6.71300001 17.626l0.17000001-0.844-218.73800001 344.747 220.58700001 348.15900001c1.23499999 1.864 2.10799999 4.076 2.463 6.45699999l-0.757-2.902 0.853 2.56 0.427 0.853 0.71100001 2.702 0.14199999 0.996 0.569 2.418 0 0.711c0.182 0.986 0.287 2.123 0.291 3.284l-0.006 3.543c0 3.271-0.427 6.684-1.422 9.955l0 0.427c-1.078 3.17699999-1.789 6.85-1.979 10.66l0.841-7.104c-1.363 4.123-3.519 7.66-6.30699999 10.592l3.46199999-4.335c-3.266 5.806-7.433 10.704-12.371 14.683l9.81-10.7-1.138 1.564-2.275 2.844-0.284 0.142-1.564 1.707c-0.42700001 0-0.569 0.142-0.853 0.42699999-1.933 1.873-4.288 3.321-6.909 4.18400002l4.49099999-2.05000001-0.99599999 0.71100001-0.56899999 0.42699999-0.85300001 0.284-2.276 1.422-0.141 0c-1.063 0.831-2.367 1.402-3.791 1.596l1.23-0.174c-3.059 1.5-6.62699999 2.493-10.395 2.76100001 2.664-0.038 0.147 0.404-2.468 0.44799999l1.344 0.061-2.702 0.14200001-0.711-1e-8-1.991-0.142-0.711 0-2.276-0.142-1.138-0.14199999-2.133-0.427-0.996-0.14200002c-0.853-0.284-1.422-0.569-2.133-0.56899999l-0.711-0.28400001c-1.16-0.189-2.191-0.634-3.07-1.27499999l0.22400001 0.279c-5.206-2.583-11.259-4.41600001-17.64200001-5.165l-725.327-363.902c-13.61-7.006-22.759-20.957-22.759-37.045 0-0.175 0.001-0.353 0.003-0.528-0.005-0.194-0.007-0.457-0.007-0.71999999 0-15.985 9.09300001-29.845 22.38899999-36.69200001z"  horiz-adv-x="1024" />

    
    <glyph glyph-name="shigu" unicode="&#58893;" d="M219.8 206.2c0 0.1 0 0.3 0 0zM357 318c-55.1-5.1-110.9-4.2-168.5 2.5 9 34.1 16.7 65.6 26.2 96.4 1.8 5.9 10.3 11.8 16.9 13.9 16.1 5.3 32.8 10.6 49.6 12 46.9 3.7 94 6.2 141 8.2 5.4 11.4 10.7 22.9 16 34.4-16.4 2.1-33 3.6-49.4 5.5-35.6 2.1-67.4-0.4-105.3-9.1-13.5-3.2-27.1-6.1-40.5-9.8-35.5-9.9-62.5-27.9-69.4-67.3-4.1-23.4-11.4-46.4-18-69.3-1.3-4.4-6.3-11.3-9.4-11.2-25.5 1-34-15-39-35.3-0.8-4.7 0.2-8.8 1.1-12.2 9.9-1.7 19.8-3.4 26.8-4.6 2.7-36 5.4-71.7 8.2-107.4 1.5-19.2 2.5-38.6 5.5-57.6 1.4-8.8 6-22.3 11.2-25.3 4-4.4 68.9 1.3 80.5 6.9 5.4 2.6 5.6 30.8 8.7 47.9l88 7.6c3.5 45.9 7.9 91.7 12.4 137.5 1.1 12.5 4.9 24.4 7.4 36.3 0.1 0 0 0 0 0z m-96.6-94.7c-1.5-5.3-8.7-10.7-14.6-12.6-8.1-2.6-17.3-3.7-26-4.5 0-0.1 0-0.3 0 0-12.9 0.2-25.9-0.5-38.6 0.9-16.5 1.9-22.2 13.4-19.2 35.2 2.1 14.9 13.6 16.5 24.3 14 21.5-4.9 42.7-11.4 63.5-18.8 5.1-1.7 11.7-10.5 10.6-14.2z m539.7-24.8c0 0.4 0 0.2 0 0zM495.4 665.4l-61.1 24.8 13.4-127 47.7 102.2z m-170.8 82.2l-67.9-56.9 160.1-126-92.2 182.9z m613.1-447.9c-6.1 24.7-16.5 44.3-47.6 43.1-3.8-0.1-9.9 8.3-11.5 13.7-8.1 28-17 56-22 84.7-8.4 48.1-41.3 70-84.7 82.1-16.3 4.5-33 8-49.5 12-46.4 10.5-85.2 13.6-128.6 11.1-29.9-3.6-60.1-5.8-89.7-11.2-21.9-4-38.6-16.9-48.2-38-15.2-33.4-31-66.5-47.4-99.2-2.8-5.5-10.9-13.2-15-12.4-27.9 5.5-42.5-8.7-53.1-30.7-2.7-6.8-2.2-13.9-1.7-18.5 11.4-4.2 22.9-8.4 33.4-12.2-2.6-11.8-6.4-23.8-7.6-35.9-5.4-55.4-10.7-110.9-14.5-166.4-0.7-9.9 3.8-25.8 7.6-28.7 3.3-6.8 88.7-13.8 95.7-9.9 23.4 12.3 11.9 37.2 20.7 55.8L764.3 114c3.8-20.9 4.1-55.4 10.6-58.5 14.3-6.9 93.4-13.9 98.4-8.5 6.4 3.7 11.9 20.1 13.7 30.8 3.7 23.2 4.9 46.8 6.7 70.3 3.4 43.6 6.7 87.2 10 131.1 8.5 1.4 20.6 3.5 32.7 5.6 1 4.1 2.3 9.2 1.3 14.9z m-442.2-71.3c-12.4-1.5-25.1-0.2-40.9-0.1-13.6 2.8-30.6 4.9-46.7 10-21.9 7-15.5 25.1-13.6 40.7 1.6 13.4 11 22.8 23 17.9 29.9-12 59.5-25.7 87.2-42 12.8-7.4 6.4-24.5-9-26.5zM446 371.8c14 32.4 27.7 61.1 38.7 90.6 9.5 25.4 27.8 36.7 53.4 35.7 62.4-2.6 124.8-5.8 187.1-10.7 20.5-1.6 40.9-8.2 60.5-14.6 8.1-2.7 18.5-9.8 20.7-17 11.6-37.7 20.9-76.1 32-117.8-135.8-15.6-263.7-5.2-392.4 33.8z m401.2-172.1c-15.5-1.8-31.4-0.9-47.1-1.1 0-0.3 0-0.2 0 0-10.7 0.9-21.8 2.3-31.8 5.5-7.2 2.3-16 9-17.8 15.4-1.3 4.6 6.8 15.3 12.9 17.4 25.4 9 51.3 16.9 77.5 23 13.1 3 27.2 1 29.7-17.1 3.7-26.7-3.2-40.8-23.4-43.1z m0 0"  horiz-adv-x="1024" />

    
    <glyph glyph-name="xiangxiqingkuang" unicode="&#58992;" d="M815.317-10.916H208.312c-50.508 0-91.599 41.091-91.599 91.599V687.688c0 50.508 41.091 91.599 91.599 91.599h607.006c50.508 0 91.599-41.091 91.599-91.599v-607.006c-0.001-50.507-41.092-91.598-91.6-91.598zM208.312 715.287c-15.218 0-27.599-12.381-27.599-27.599v-607.006c0-15.218 12.381-27.599 27.599-27.599h607.006c15.218 0 27.599 12.381 27.599 27.599V687.688c0 15.218-12.381 27.599-27.599 27.599H208.312zM381.146 585.449c0-17.367-14.079-31.447-31.447-31.447h-62.65c-17.367 0-31.447 14.079-31.447 31.447 0 17.367 14.079 31.447 31.447 31.447h62.65c17.368-0.001 31.447-14.08 31.447-31.447z m0-192.747c0-17.367-14.079-31.447-31.447-31.447h-62.65c-17.367 0-31.447 14.079-31.447 31.447 0 17.367 14.079 31.447 31.447 31.447h62.65c17.368-0.001 31.447-14.08 31.447-31.447z m0-200.585c0-17.367-14.079-31.446-31.447-31.446h-62.65c-17.367 0-31.447 14.079-31.447 31.446s14.079 31.447 31.447 31.447h62.65c17.368-0.001 31.447-14.08 31.447-31.447z m407.66 394.794c0-17.748-14.388-32.135-32.135-32.135H477.593c-17.748 0-32.135 14.387-32.135 32.135 0 17.748 14.387 32.135 32.135 32.135H756.67c17.748 0 32.136-14.387 32.136-32.135z m0-195.395c0-17.748-14.388-32.135-32.135-32.135H477.593c-17.748 0-32.135 14.387-32.135 32.135 0 17.748 14.387 32.135 32.135 32.135H756.67c17.748 0 32.136-14.388 32.136-32.135z m0-198.399c0-17.748-14.388-32.135-32.135-32.135H477.593c-17.748 0-32.135 14.387-32.135 32.135 0 17.748 14.387 32.135 32.135 32.135H756.67c17.748 0 32.136-14.387 32.136-32.135z"  horiz-adv-x="1024" />

    


  </font>
</defs>
</svg>
